<?xml version="1.0" encoding="UTF-8" standalone="no"?>
<!-- Created with Inkscape (http://www.inkscape.org/) -->

<svg
   width="61.273998"
   height="61.273998"
   viewBox="0 0 16.212078 16.212079"
   version="1.1"
   id="svg1"
   inkscape:version="1.3 (0e150ed6c4, 2023-07-21)"
   sodipodi:docname="ball.svg"
   xml:space="preserve"
   xmlns:inkscape="http://www.inkscape.org/namespaces/inkscape"
   xmlns:sodipodi="http://sodipodi.sourceforge.net/DTD/sodipodi-0.dtd"
   xmlns="http://www.w3.org/2000/svg"
   xmlns:svg="http://www.w3.org/2000/svg"><sodipodi:namedview
     id="namedview1"
     pagecolor="#ffffff"
     bordercolor="#000000"
     borderopacity="0.25"
     inkscape:showpageshadow="2"
     inkscape:pageopacity="0.0"
     inkscape:pagecheckerboard="0"
     inkscape:deskcolor="#d1d1d1"
     inkscape:document-units="px"
     inkscape:zoom="3.3638609"
     inkscape:cx="38.943347"
     inkscape:cy="85.913185"
     inkscape:window-width="1607"
     inkscape:window-height="1362"
     inkscape:window-x="-5"
     inkscape:window-y="0"
     inkscape:window-maximized="0"
     inkscape:current-layer="g12" /><defs
     id="defs1"><rect
       x="-2882.9646"
       y="7730.4028"
       width="41.618843"
       height="12.011523"
       id="rect211" /><rect
       x="-3145.3611"
       y="5085.2476"
       width="96.520004"
       height="73.221497"
       id="rect118" /></defs><g
     inkscape:label="Layer 1"
     inkscape:groupmode="layer"
     id="layer1"><text
       xml:space="preserve"
       style="font-size:8.76296px;line-height:0;letter-spacing:0.125785px;fill:#f6f6f6;fill-opacity:1;stroke:none;stroke-width:21.9075;stroke-dasharray:none"
       x="-457.33969"
       y="-88.056313"
       id="text9"><tspan
         sodipodi:role="line"
         style="font-style:normal;font-variant:normal;font-weight:500;font-stretch:normal;font-size:5.69596px;line-height:0;font-family:Roboto;-inkscape-font-specification:'Roboto Medium';letter-spacing:0.125785px;baseline-shift:sub;fill:#f6f6f6;fill-opacity:1;stroke-width:21.9075"
         x="-457.33969"
         y="-88.056313"
         id="tspan9" /></text><text
       xml:space="preserve"
       transform="scale(0.26458333)"
       id="text118"
       style="font-style:normal;font-variant:normal;font-weight:bold;font-stretch:normal;font-size:38.4465px;line-height:0;font-family:Roboto;-inkscape-font-specification:'Roboto, Bold';font-variant-ligatures:normal;font-variant-caps:normal;font-variant-numeric:normal;font-variant-east-asian:normal;letter-spacing:0.9px;white-space:pre;shape-inside:url(#rect118);display:inline;fill:#070013;fill-opacity:1;stroke:none;stroke-width:30" /><text
       xml:space="preserve"
       transform="scale(0.26458333)"
       id="text211"
       style="font-weight:500;line-height:0;font-family:Roboto;-inkscape-font-specification:'Roboto Medium';letter-spacing:0.9px;white-space:pre;shape-inside:url(#rect211);display:inline;fill:#070013;fill-opacity:1;stroke-width:30" /><g
       id="g12"
       transform="translate(2797.6147,1167.4143)"><path
         id="path11424"
         style="color:#000000;fill:#f5f5f5;fill-opacity:1;stroke-width:3.28298;stroke-linecap:round;stroke-linejoin:round;-inkscape-stroke:none"
         d="m -2789.5041,-1167.2047 c -3.0778,0 -6.0067,1.8143 -7.2782,4.8233 -1.6956,4.0124 0.1915,8.6503 4.2033,10.346 4.0122,1.6953 8.6474,-0.1857 10.3428,-4.1989 1.6954,-4.0124 -0.1829,-8.6517 -4.1959,-10.3475 -1.0031,-0.4238 -2.046,-0.6241 -3.072,-0.6229 z m -0.381,0.7665 v 3.769 l -2.9629,2.1519 -3.469,-0.9321 c 0.068,-0.2143 0.1458,-0.426 0.2344,-0.6364 1.1,-2.6031 3.5559,-4.2119 6.1973,-4.3524 z m 0.7591,0 c 0.8037,0.043 1.6136,0.2229 2.3984,0.5552 2.0101,0.8491 3.427,2.508 4.0335,4.4351 l -3.4721,0.9306 -2.9598,-2.1504 z m -7.3803,5.7185 3.431,0.92 1.1224,3.4516 -2.3378,2.3438 c -1.8545,-1.671 -2.7222,-4.2266 -2.2156,-6.7154 z m 13.9996,0 c 0.2744,1.3604 0.1572,2.8159 -0.4238,4.193 -0.5438,1.2875 -1.4196,2.3309 -2.4855,3.0749 -0.5513,-0.9562 -1.1013,-1.9123 -1.6543,-2.8698 l 1.1315,-3.4795 z m -8.8391,4.8368 h 3.6568 c 0.5451,0.9441 1.0882,1.8868 1.6319,2.8297 -1.8491,1.0192 -4.1295,1.2104 -6.2281,0.3236 -0.5102,-0.2143 -0.9828,-0.4836 -1.4132,-0.7946 z" /></g></g></svg>
