<?xml version="1.0" encoding="UTF-8" standalone="no"?>
<!-- Created with Inkscape (http://www.inkscape.org/) -->

<svg
   width="217.45801"
   height="148.27441"
   viewBox="0 0 57.535763 39.230939"
   version="1.1"
   id="svg1"
   inkscape:version="1.3 (0e150ed6c4, 2023-07-21)"
   sodipodi:docname="gametime designn editor.svg"
   xml:space="preserve"
   xmlns:inkscape="http://www.inkscape.org/namespaces/inkscape"
   xmlns:sodipodi="http://sodipodi.sourceforge.net/DTD/sodipodi-0.dtd"
   xmlns="http://www.w3.org/2000/svg"
   xmlns:svg="http://www.w3.org/2000/svg"><sodipodi:namedview
     id="namedview1"
     pagecolor="#ffffff"
     bordercolor="#000000"
     borderopacity="0.25"
     inkscape:showpageshadow="2"
     inkscape:pageopacity="0.0"
     inkscape:pagecheckerboard="0"
     inkscape:deskcolor="#d1d1d1"
     inkscape:document-units="px"
     inkscape:zoom="0.2102413"
     inkscape:cx="218.79621"
     inkscape:cy="13898.316"
     inkscape:window-width="2102"
     inkscape:window-height="1362"
     inkscape:window-x="5"
     inkscape:window-y="0"
     inkscape:window-maximized="0"
     inkscape:current-layer="g348" /><defs
     id="defs1" /><g
     inkscape:label="Layer 1"
     inkscape:groupmode="layer"
     id="layer1"
     transform="translate(-648.22913,-3858.9482)"><path
       id="path309-4"
       style="fill:#ffffff;stroke:none;stroke-width:0.371163;stroke-dasharray:none"
       d="m 670.70437,3858.948 c -2.10719,0 -3.80361,1.6961 -3.80361,3.8033 v 3.4863 h -11.15717 c -4.16295,0 -7.51443,3.3515 -7.51443,7.5144 v 16.9129 c 0,4.1629 3.35148,7.5141 7.51443,7.5141 h 42.5069 c 4.16295,0 7.51443,-3.3512 7.51443,-7.5141 v -16.9129 c 0,-4.1629 -3.35148,-7.5144 -7.51443,-7.5144 h -11.15751 v -3.4863 c 0,-2.1072 -1.69608,-3.8033 -3.80327,-3.8033 z m 6.2925,11.1847 a 11.955521,11.955521 0 0 1 11.95576,11.9557 11.955521,11.955521 0 0 1 -11.95576,11.9554 11.955521,11.955521 0 0 1 -11.95541,-11.9554 11.955521,11.955521 0 0 1 11.95541,-11.9557 z m 19.82884,1.4579 a 2.6243826,2.6243826 0 0 1 2.62435,2.6244 2.6243826,2.6243826 0 0 1 -2.62435,2.6244 2.6243826,2.6243826 0 0 1 -2.62436,-2.6244 2.6243826,2.6243826 0 0 1 2.62436,-2.6244 z" /></g></svg>
