<?xml version="1.0" encoding="UTF-8" standalone="no"?>
<!-- Created with Inkscape (http://www.inkscape.org/) -->

<svg
   width="202.54492"
   height="202.54492"
   viewBox="0 0 53.590009 53.59001"
   version="1.1"
   id="svg1"
   inkscape:version="1.3 (0e150ed6c4, 2023-07-21)"
   sodipodi:docname="gametime designn leagues.svg"
   xml:space="preserve"
   xmlns:inkscape="http://www.inkscape.org/namespaces/inkscape"
   xmlns:sodipodi="http://sodipodi.sourceforge.net/DTD/sodipodi-0.dtd"
   xmlns="http://www.w3.org/2000/svg"
   xmlns:svg="http://www.w3.org/2000/svg"><sodipodi:namedview
     id="namedview1"
     pagecolor="#ffffff"
     bordercolor="#000000"
     borderopacity="0.25"
     inkscape:showpageshadow="2"
     inkscape:pageopacity="0.0"
     inkscape:pagecheckerboard="0"
     inkscape:deskcolor="#d1d1d1"
     inkscape:document-units="px"
     inkscape:zoom="1.1893044"
     inkscape:cx="245.52167"
     inkscape:cy="7510.2723"
     inkscape:window-width="2102"
     inkscape:window-height="1362"
     inkscape:window-x="5"
     inkscape:window-y="0"
     inkscape:window-maximized="0"
     inkscape:current-layer="layer1" /><defs
     id="defs1" /><g
     inkscape:label="Layer 1"
     inkscape:groupmode="layer"
     id="layer1"
     transform="translate(-40.356194,-1971.1922)"><path
       id="path22"
       style="opacity:1;fill:#f6f6f6;fill-opacity:1;stroke-width:7.9375"
       d="m 67.150939,1971.1923 a 26.794928,26.794928 0 0 0 -2.626196,0.1287 26.794928,26.794928 0 0 0 -2.600875,0.386 26.794928,26.794928 0 0 0 -2.550749,0.6387 26.794928,26.794928 0 0 0 -2.475818,0.8863 26.794928,26.794928 0 0 0 -2.377115,1.1245 26.794928,26.794928 0 0 0 -2.255677,1.3518 26.794928,26.794928 0 0 0 -2.112015,1.5663 26.794928,26.794928 0 0 0 -1.948202,1.7658 26.794928,26.794928 0 0 0 -1.765784,1.9482 26.794928,26.794928 0 0 0 -1.566312,2.112 26.794928,26.794928 0 0 0 -1.351856,2.2557 26.794928,26.794928 0 0 0 -1.124479,2.3771 26.794928,26.794928 0 0 0 -0.885734,2.4758 26.794928,26.794928 0 0 0 -0.639237,2.5508 26.794928,26.794928 0 0 0 -0.385506,2.6009 26.794928,26.794928 0 0 0 -0.129192,2.6262 26.794928,26.794928 0 0 0 0.129192,2.6262 26.794928,26.794928 0 0 0 0.385506,2.6013 26.794928,26.794928 0 0 0 0.639237,2.5508 26.794928,26.794928 0 0 0 0.885734,2.4758 26.794928,26.794928 0 0 0 1.124479,2.3771 26.794928,26.794928 0 0 0 1.351856,2.2552 26.794928,26.794928 0 0 0 1.566312,2.112 26.794928,26.794928 0 0 0 0.82889,0.9147 26.794928,26.794928 0 0 0 0.936894,1.034 26.794928,26.794928 0 0 0 1.948202,1.7658 26.794928,26.794928 0 0 0 2.112015,1.5663 26.794928,26.794928 0 0 0 2.255677,1.3519 26.794928,26.794928 0 0 0 2.377115,1.1245 26.794928,26.794928 0 0 0 2.475818,0.8857 26.794928,26.794928 0 0 0 2.550749,0.6387 26.794928,26.794928 0 0 0 2.600875,0.386 26.794928,26.794928 0 0 0 2.626196,0.1292 26.794928,26.794928 0 0 0 2.626196,-0.1292 26.794928,26.794928 0 0 0 2.601392,-0.386 26.794928,26.794928 0 0 0 2.550748,-0.6387 26.794928,26.794928 0 0 0 2.475818,-0.8857 26.794928,26.794928 0 0 0 2.377116,-1.1245 26.794928,26.794928 0 0 0 2.25516,-1.3519 26.794928,26.794928 0 0 0 2.112015,-1.5663 26.794928,26.794928 0 0 0 1.948719,-1.7658 26.794928,26.794928 0 0 0 0.949296,-1.0475 20.502573,20.502573 0 0 0 0,-5e-4 26.794928,26.794928 0 0 0 0.816487,-0.9012 26.794928,26.794928 0 0 0 1.566313,-2.112 26.794928,26.794928 0 0 0 1.351855,-2.2552 26.794928,26.794928 0 0 0 1.12448,-2.3771 26.794928,26.794928 0 0 0 0.885734,-2.4758 26.794928,26.794928 0 0 0 0.63872,-2.5508 26.794928,26.794928 0 0 0 0.386023,-2.6008 26.794928,26.794928 0 0 0 0.129191,-2.6268 26.794928,26.794928 0 0 0 -0.05736,-1.7523 26.794928,26.794928 0 0 0 -0.172082,-1.7451 26.794928,26.794928 0 0 0 -0.285254,-1.7296 26.794928,26.794928 0 0 0 -0.398425,-1.7079 26.794928,26.794928 0 0 0 -0.509013,-1.678 26.794928,26.794928 0 0 0 -0.617533,-1.6407 26.794928,26.794928 0 0 0 -0.723471,-1.5973 26.794928,26.794928 0 0 0 -0.826822,-1.5462 26.794928,26.794928 0 0 0 -0.926042,-1.4893 26.794928,26.794928 0 0 0 -1.021126,-1.4252 26.794928,26.794928 0 0 0 -1.112594,-1.3555 26.794928,26.794928 0 0 0 -1.198376,-1.2795 26.794928,26.794928 0 0 0 -1.280026,-1.1989 26.794928,26.794928 0 0 0 -1.354956,-1.1121 26.794928,26.794928 0 0 0 -1.425236,-1.0216 26.794928,26.794928 0 0 0 -1.489314,-0.9255 26.794928,26.794928 0 0 0 -1.546159,-0.8263 26.794928,26.794928 0 0 0 -1.597319,-0.724 26.794928,26.794928 0 0 0 -1.640726,-0.6176 26.794928,26.794928 0 0 0 -1.677934,-0.509 26.794928,26.794928 0 0 0 -1.707906,-0.3984 26.794928,26.794928 0 0 0 -1.730127,-0.2847 26.794928,26.794928 0 0 0 -1.744596,-0.1726 26.794928,26.794928 0 0 0 -1.752865,-0.057 z m 0,6.2927 a 20.502573,20.502573 0 0 1 1.34152,0.044 20.502573,20.502573 0 0 1 1.334802,0.1318 20.502573,20.502573 0 0 1 1.323951,0.218 20.502573,20.502573 0 0 1 1.30638,0.3049 20.502573,20.502573 0 0 1 1.284159,0.3897 20.502573,20.502573 0 0 1 1.255221,0.4723 20.502573,20.502573 0 0 1 1.222147,0.554 20.502573,20.502573 0 0 1 1.18339,0.6325 20.502573,20.502573 0 0 1 1.139466,0.7079 20.502573,20.502573 0 0 1 1.090373,0.7819 20.502573,20.502573 0 0 1 1.037145,0.8511 20.502573,20.502573 0 0 1 0.979269,0.9173 20.502573,20.502573 0 0 1 0.91674,0.9787 20.502573,20.502573 0 0 1 0.851627,1.0372 20.502573,20.502573 0 0 1 0.781348,1.0909 20.502573,20.502573 0 0 1 0.708484,1.1394 20.502573,20.502573 0 0 1 0.632519,1.1829 20.502573,20.502573 0 0 1 0.553455,1.2227 20.502573,20.502573 0 0 1 0.472839,1.2552 20.502573,20.502573 0 0 1 0.389124,1.2836 20.502573,20.502573 0 0 1 0.304891,1.3069 20.502573,20.502573 0 0 1 0.218591,1.3235 20.502573,20.502573 0 0 1 0.131775,1.3353 20.502573,20.502573 0 0 1 0.04392,1.341 20.502573,20.502573 0 0 1 -0.09922,2.0097 20.502573,20.502573 0 0 1 -0.295072,1.99 20.502573,20.502573 0 0 1 -0.488859,1.9519 20.502573,20.502573 0 0 1 -0.677995,1.8944 20.502573,20.502573 0 0 1 -0.859896,1.819 20.502573,20.502573 0 0 1 -1.034562,1.7255 20.502573,20.502573 0 0 1 -0.01033,0.014 20.502573,20.502573 0 0 0 -0.771013,-1.0764 20.502573,20.502573 0 0 0 -0.851627,-1.0371 20.502573,20.502573 0 0 0 -0.91674,-0.9788 20.502573,20.502573 0 0 0 -0.979269,-0.9177 20.502573,20.502573 0 0 0 -1.037145,-0.8506 20.502573,20.502573 0 0 0 -1.090373,-0.7819 20.502573,20.502573 0 0 0 -1.139466,-0.708 20.502573,20.502573 0 0 0 -1.18339,-0.633 20.502573,20.502573 0 0 0 -1.222147,-0.5535 20.502573,20.502573 0 0 0 -1.255221,-0.4723 20.502573,20.502573 0 0 0 -1.284159,-0.3896 20.502573,20.502573 0 0 0 -1.30638,-0.3049 20.502573,20.502573 0 0 0 -1.323951,-0.2181 20.502573,20.502573 0 0 0 -1.334802,-0.1318 20.502573,20.502573 0 0 0 -1.34152,-0.044 20.502573,20.502573 0 0 0 -2.00918,0.099 20.502573,20.502573 0 0 0 -1.990576,0.2951 20.502573,20.502573 0 0 0 -1.951302,0.4888 20.502573,20.502573 0 0 0 -1.894458,0.678 20.502573,20.502573 0 0 0 -1.81901,0.8605 20.502573,20.502573 0 0 0 -1.725993,1.0345 20.502573,20.502573 0 0 0 -1.615922,1.1984 20.502573,20.502573 0 0 0 -1.490865,1.3513 20.502573,20.502573 0 0 0 -1.351339,1.4904 20.502573,20.502573 0 0 0 -1.187524,1.6019 20.502573,20.502573 0 0 1 -0.01085,-0.013 20.502573,20.502573 0 0 1 -1.034562,-1.7255 20.502573,20.502573 0 0 1 -0.859896,-1.819 20.502573,20.502573 0 0 1 -0.677995,-1.8944 20.502573,20.502573 0 0 1 -0.488859,-1.9519 20.502573,20.502573 0 0 1 -0.295589,-1.99 20.502573,20.502573 0 0 1 -0.0987,-2.0097 20.502573,20.502573 0 0 1 0.0987,-2.0097 20.502573,20.502573 0 0 1 0.295589,-1.9901 20.502573,20.502573 0 0 1 0.488859,-1.9518 20.502573,20.502573 0 0 1 0.677995,-1.8939 20.502573,20.502573 0 0 1 0.859896,-1.819 20.502573,20.502573 0 0 1 1.034562,-1.726 20.502573,20.502573 0 0 1 1.198376,-1.6159 20.502573,20.502573 0 0 1 1.351339,-1.4909 20.502573,20.502573 0 0 1 1.490865,-1.3514 20.502573,20.502573 0 0 1 1.615922,-1.1983 20.502573,20.502573 0 0 1 1.725993,-1.0346 20.502573,20.502573 0 0 1 1.81901,-0.8604 20.502573,20.502573 0 0 1 1.894458,-0.6775 20.502573,20.502573 0 0 1 1.951302,-0.4894 20.502573,20.502573 0 0 1 1.990576,-0.295 20.502573,20.502573 0 0 1 2.00918,-0.099 z m 0,4.4002 a 7.9331141,7.9331141 0 0 0 -1.547192,0.1524 7.9331141,7.9331141 0 0 0 -1.488282,0.4512 7.9331141,7.9331141 0 0 0 -1.371492,0.7333 7.9331141,7.9331141 0 0 0 -1.202511,0.9865 7.9331141,7.9331141 0 0 0 -0.986503,1.202 7.9331141,7.9331141 0 0 0 -0.732772,1.372 7.9331141,7.9331141 0 0 0 -0.451652,1.4877 7.9331141,7.9331141 0 0 0 -0.152445,1.5478 7.9331141,7.9331141 0 0 0 0.152445,1.5477 7.9331141,7.9331141 0 0 0 0.451652,1.4882 7.9331141,7.9331141 0 0 0 0.732772,1.3715 7.9331141,7.9331141 0 0 0 0.986503,1.202 7.9331141,7.9331141 0 0 0 1.202511,0.9865 7.9331141,7.9331141 0 0 0 1.371492,0.7333 7.9331141,7.9331141 0 0 0 1.488282,0.4517 7.9331141,7.9331141 0 0 0 1.547192,0.1524 7.9331141,7.9331141 0 0 0 1.547709,-0.1524 7.9331141,7.9331141 0 0 0 1.488281,-0.4517 7.9331141,7.9331141 0 0 0 1.371493,-0.7333 7.9331141,7.9331141 0 0 0 1.20251,-0.9865 7.9331141,7.9331141 0 0 0 0.986503,-1.202 7.9331141,7.9331141 0 0 0 0.732772,-1.3715 7.9331141,7.9331141 0 0 0 0.451652,-1.4882 7.9331141,7.9331141 0 0 0 0.152446,-1.5477 7.9331141,7.9331141 0 0 0 -0.01705,-0.5189 7.9331141,7.9331141 0 0 0 -0.05116,-0.5167 7.9331141,7.9331141 0 0 0 -0.08423,-0.5122 7.9331141,7.9331141 0 0 0 -0.117822,-0.5054 7.9331141,7.9331141 0 0 0 -0.150895,-0.4966 7.9331141,7.9331141 0 0 0 -0.182935,-0.4857 7.9331141,7.9331141 0 0 0 -0.21394,-0.4734 7.9331141,7.9331141 0 0 0 -0.244946,-0.4573 7.9331141,7.9331141 0 0 0 -0.273886,-0.4413 7.9331141,7.9331141 0 0 0 -0.302823,-0.4217 7.9331141,7.9331141 0 0 0 -0.329179,-0.4015 7.9331141,7.9331141 0 0 0 -0.355017,-0.3788 7.9331141,7.9331141 0 0 0 -0.378789,-0.355 7.9331141,7.9331141 0 0 0 -0.401009,-0.3292 7.9331141,7.9331141 0 0 0 -0.422196,-0.3023 7.9331141,7.9331141 0 0 0 -0.4408,-0.2739 7.9331141,7.9331141 0 0 0 -0.457853,-0.245 7.9331141,7.9331141 0 0 0 -0.47284,-0.2144 7.9331141,7.9331141 0 0 0 -0.485758,-0.1824 7.9331141,7.9331141 0 0 0 -0.496611,-0.1509 7.9331141,7.9331141 0 0 0 -0.505912,-0.1179 7.9331141,7.9331141 0 0 0 -0.512113,-0.084 7.9331141,7.9331141 0 0 0 -0.516765,-0.051 7.9331141,7.9331141 0 0 0 -0.518831,-0.017 z m -14.497306,30.5997 a 20.502573,20.502573 0 0 0 1.490865,1.3508 20.502573,20.502573 0 0 0 1.615922,1.1984 20.502573,20.502573 0 0 0 1.725993,1.0345 20.502573,20.502573 0 0 0 1.81901,0.8605 20.502573,20.502573 0 0 0 1.894458,0.678 20.502573,20.502573 0 0 0 1.951302,0.4883 20.502573,20.502573 0 0 0 1.990576,0.2956 20.502573,20.502573 0 0 0 2.00918,0.099 20.502573,20.502573 0 0 0 2.009696,-0.099 20.502573,20.502573 0 0 0 1.990577,-0.2956 20.502573,20.502573 0 0 0 1.951302,-0.4883 20.502573,20.502573 0 0 0 1.894458,-0.678 20.502573,20.502573 0 0 0 1.81901,-0.8605 20.502573,20.502573 0 0 0 1.725476,-1.0345 20.502573,20.502573 0 0 0 1.616439,-1.1984 20.502573,20.502573 0 0 0 1.490865,-1.3508 20.502573,20.502573 0 0 1 0,5e-4 20.502573,20.502573 0 0 1 -1.490865,1.3508 20.502573,20.502573 0 0 1 -1.616439,1.1984 20.502573,20.502573 0 0 1 -1.725476,1.0346 20.502573,20.502573 0 0 1 -1.81901,0.8604 20.502573,20.502573 0 0 1 -1.894458,0.678 20.502573,20.502573 0 0 1 -1.951302,0.4883 20.502573,20.502573 0 0 1 -1.990577,0.2956 20.502573,20.502573 0 0 1 -2.009696,0.099 20.502573,20.502573 0 0 1 -2.00918,-0.099 20.502573,20.502573 0 0 1 -1.990576,-0.2956 20.502573,20.502573 0 0 1 -1.951302,-0.4883 20.502573,20.502573 0 0 1 -1.894458,-0.678 20.502573,20.502573 0 0 1 -1.81901,-0.8604 20.502573,20.502573 0 0 1 -1.725993,-1.0346 20.502573,20.502573 0 0 1 -1.615922,-1.1984 20.502573,20.502573 0 0 1 -1.490865,-1.3508 20.502573,20.502573 0 0 1 0,-5e-4 z" /></g></svg>
