<?xml version="1.0" encoding="UTF-8" standalone="no"?>
<!-- Created with Inkscape (http://www.inkscape.org/) -->

<svg
   width="422.03601"
   height="135.56"
   viewBox="0 0 111.66369 35.866916"
   version="1.1"
   id="svg1"
   inkscape:version="1.3 (0e150ed6c4, 2023-07-21)"
   sodipodi:docname="gt editor.svg"
   xml:space="preserve"
   xmlns:inkscape="http://www.inkscape.org/namespaces/inkscape"
   xmlns:sodipodi="http://sodipodi.sourceforge.net/DTD/sodipodi-0.dtd"
   xmlns="http://www.w3.org/2000/svg"
   xmlns:svg="http://www.w3.org/2000/svg"><sodipodi:namedview
     id="namedview1"
     pagecolor="#ffffff"
     bordercolor="#000000"
     borderopacity="0.25"
     inkscape:showpageshadow="2"
     inkscape:pageopacity="0.0"
     inkscape:pagecheckerboard="0"
     inkscape:deskcolor="#d1d1d1"
     inkscape:document-units="px"
     inkscape:zoom="0.59465221"
     inkscape:cx="387.62153"
     inkscape:cy="-84.082762"
     inkscape:window-width="1607"
     inkscape:window-height="1362"
     inkscape:window-x="1821"
     inkscape:window-y="88"
     inkscape:window-maximized="0"
     inkscape:current-layer="g12" /><defs
     id="defs1"><rect
       x="-2882.9646"
       y="7730.4028"
       width="41.618843"
       height="12.011523"
       id="rect211" /><rect
       x="-3145.3611"
       y="5085.2476"
       width="96.520004"
       height="73.221497"
       id="rect118" /><rect
       x="-2882.9646"
       y="7730.4028"
       width="41.618843"
       height="12.011523"
       id="rect211-7" /><rect
       x="-3145.3611"
       y="5085.2476"
       width="96.520004"
       height="73.221497"
       id="rect118-0" /></defs><g
     inkscape:label="Layer 1"
     inkscape:groupmode="layer"
     id="layer1"><text
       xml:space="preserve"
       style="font-size:8.76296px;line-height:0;letter-spacing:0.125785px;fill:#f6f6f6;fill-opacity:1;stroke:none;stroke-width:21.9075;stroke-dasharray:none"
       x="-457.33969"
       y="-88.056313"
       id="text9"><tspan
         sodipodi:role="line"
         style="font-style:normal;font-variant:normal;font-weight:500;font-stretch:normal;font-size:5.69596px;line-height:0;font-family:Roboto;-inkscape-font-specification:'Roboto Medium';letter-spacing:0.125785px;baseline-shift:sub;fill:#f6f6f6;fill-opacity:1;stroke-width:21.9075"
         x="-457.33969"
         y="-88.056313"
         id="tspan9" /></text><text
       xml:space="preserve"
       transform="scale(0.26458333)"
       id="text118"
       style="font-style:normal;font-variant:normal;font-weight:bold;font-stretch:normal;font-size:38.4465px;line-height:0;font-family:Roboto;-inkscape-font-specification:'Roboto, Bold';font-variant-ligatures:normal;font-variant-caps:normal;font-variant-numeric:normal;font-variant-east-asian:normal;letter-spacing:0.9px;white-space:pre;shape-inside:url(#rect118);display:inline;fill:#070013;fill-opacity:1;stroke:none;stroke-width:30" /><text
       xml:space="preserve"
       transform="scale(0.26458333)"
       id="text211"
       style="font-weight:500;line-height:0;font-family:Roboto;-inkscape-font-specification:'Roboto Medium';letter-spacing:0.9px;white-space:pre;shape-inside:url(#rect211);display:inline;fill:#070013;fill-opacity:1;stroke-width:30" /><g
       id="g12"
       transform="translate(2797.6147,1167.4143)"><path
         id="path4"
         style="color:#000000;fill:#87dba6;fill-opacity:1;stroke-width:0.807111;-inkscape-stroke:none"
         d="M -2779.0494 -1167.4143 C -2787.439 -1167.4143 -2795.6655 -1160.5424 -2797.3212 -1152.1527 C -2798.9769 -1143.7631 -2793.4623 -1136.8932 -2785.0728 -1136.8932 C -2781.8447 -1136.8932 -2778.6428 -1137.9137 -2775.8284 -1139.6429 L -2776.2077 -1137.7195 L -2777.4258 -1131.5472 L -2771.0194 -1131.5472 L -2769.7549 -1137.9536 L -2769.3022 -1140.249 L -2768.0377 -1146.6548 L -2767.5845 -1148.9508 L -2765.056 -1148.9508 L -2758.8832 -1148.9508 L -2757.6192 -1155.3572 L -2763.7914 -1155.3572 L -2766.3205 -1155.3572 L -2772.4932 -1155.3572 L -2775.0223 -1155.3572 L -2781.4286 -1155.3572 L -2782.6931 -1148.9508 L -2776.2863 -1148.9508 L -2774.4368 -1148.9508 C -2776.3634 -1145.6312 -2780.0146 -1143.3 -2783.8083 -1143.3 C -2788.7356 -1143.3 -2791.8868 -1147.2254 -2790.9143 -1152.1527 C -2789.9419 -1157.0801 -2785.2409 -1161.008 -2780.3134 -1161.008 C -2777.8499 -1161.008 -2775.8308 -1160.0257 -2774.5489 -1158.4283 L -2769.1591 -1162.9298 C -2771.3792 -1165.6961 -2774.8546 -1167.4143 -2779.0494 -1167.4143 z M -2720.3114 -1159.8225 C -2721.2247 -1159.8225 -2721.8807 -1159.6419 -2722.2803 -1159.2804 C -2722.6798 -1158.919 -2722.8797 -1158.3574 -2722.8797 -1157.5963 C -2722.8797 -1156.8353 -2722.6798 -1156.2836 -2722.2803 -1155.9411 C -2721.8807 -1155.5986 -2721.2247 -1155.4274 -2720.3114 -1155.4274 C -2719.3982 -1155.4274 -2718.7416 -1155.5986 -2718.342 -1155.9411 C -2717.9425 -1156.3026 -2717.7431 -1156.8543 -2717.7431 -1157.5963 C -2717.7431 -1158.3574 -2717.9425 -1158.919 -2718.342 -1159.2804 C -2718.7416 -1159.6419 -2719.3982 -1159.8225 -2720.3114 -1159.8225 z M -2729.6721 -1159.623 L -2729.6721 -1154.6285 C -2730.2238 -1155.1042 -2731.0036 -1155.3422 -2732.012 -1155.3422 C -2733.477 -1155.3422 -2734.5997 -1154.7429 -2735.3797 -1153.5443 C -2736.1598 -1152.3457 -2736.5497 -1150.557 -2736.5497 -1148.1788 C -2736.5497 -1145.8197 -2736.2073 -1144.0408 -2735.5224 -1142.8422 C -2734.8184 -1141.6436 -2733.6101 -1141.0443 -2731.8978 -1141.0443 C -2730.6041 -1141.0443 -2729.6431 -1141.5292 -2729.0153 -1142.4995 L -2728.8726 -1142.4995 C -2728.5492 -1141.5292 -2727.6551 -1141.0443 -2726.1901 -1141.0443 L -2724.2781 -1141.1585 L -2723.8502 -1144.6116 C -2724.2497 -1144.6116 -2724.5254 -1144.6685 -2724.6776 -1144.7826 C -2724.8298 -1144.9158 -2724.906 -1145.1632 -2724.906 -1145.5247 L -2724.906 -1159.623 L -2729.6721 -1159.623 z M -2714.9174 -1157.4537 L -2715.1743 -1154.8285 L -2716.7726 -1154.8285 L -2716.7726 -1151.2897 L -2715.4027 -1151.2897 L -2715.4027 -1144.6684 C -2715.4027 -1143.3366 -2715.1172 -1142.395 -2714.5464 -1141.8433 C -2713.9566 -1141.3105 -2713.148 -1141.0443 -2712.1207 -1141.0443 C -2711.0742 -1141.0443 -2709.8471 -1141.1299 -2708.4393 -1141.3012 L -2708.2966 -1145.0973 C -2709.4382 -1145.04 -2710.028 -1145.011 -2710.066 -1145.011 C -2710.4466 -1145.011 -2710.6365 -1145.2109 -2710.6365 -1145.6105 L -2710.6365 -1151.2897 L -2708.2682 -1151.2897 L -2708.0682 -1154.8285 L -2710.6081 -1154.8285 L -2710.6081 -1157.4537 L -2714.9174 -1157.4537 z M -2743.1705 -1155.3422 C -2747.2039 -1155.3422 -2749.2208 -1152.9636 -2749.2208 -1148.2072 C -2749.2208 -1146.0002 -2748.6977 -1144.2501 -2747.6513 -1142.9564 C -2746.6049 -1141.6816 -2745.1017 -1141.0443 -2743.1421 -1141.0443 C -2741.5439 -1141.0443 -2739.9457 -1141.2917 -2738.3475 -1141.7864 L -2738.747 -1145.3252 C -2740.5734 -1144.8876 -2741.8006 -1144.6684 -2742.4284 -1144.6684 C -2743.7412 -1144.6684 -2744.3978 -1145.3819 -2744.3978 -1146.8088 L -2737.8912 -1146.8088 C -2737.758 -1148.6353 -2737.6912 -1149.6631 -2737.6912 -1149.8913 C -2737.6912 -1151.6417 -2738.1192 -1152.9826 -2738.9754 -1153.9149 C -2739.8125 -1154.8661 -2741.2109 -1155.3422 -2743.1705 -1155.3422 z M -2701.3901 -1155.3422 C -2703.4258 -1155.3422 -2704.929 -1154.7806 -2705.8994 -1153.658 C -2706.8506 -1152.5356 -2707.3262 -1150.7186 -2707.3262 -1148.2072 C -2707.3262 -1145.7148 -2706.8506 -1143.8979 -2705.8994 -1142.7564 C -2704.9481 -1141.6148 -2703.4355 -1141.0443 -2701.3617 -1141.0443 C -2699.2879 -1141.0443 -2697.7946 -1141.6148 -2696.8813 -1142.7564 C -2695.9681 -1143.8979 -2695.5114 -1145.7247 -2695.5114 -1148.2361 C -2695.5114 -1150.7665 -2695.9775 -1152.5834 -2696.9097 -1153.687 C -2697.8419 -1154.7904 -2699.3353 -1155.3422 -2701.3901 -1155.3422 z M -2685.9512 -1155.3422 C -2686.9596 -1155.3422 -2687.6919 -1155.266 -2688.1485 -1155.1138 C -2688.5861 -1154.9806 -2689.0235 -1154.6664 -2689.4611 -1154.1717 L -2689.5753 -1154.1717 L -2689.8606 -1154.9996 L -2694.0272 -1154.9996 L -2694.0272 -1141.3296 L -2689.29 -1141.3296 L -2689.29 -1149.0066 C -2689.29 -1149.7296 -2689.1758 -1150.2051 -2688.9474 -1150.4334 C -2688.7001 -1150.6617 -2688.2053 -1150.776 -2687.4633 -1150.776 L -2686.1507 -1150.776 L -2685.9512 -1155.3422 z M -2722.6513 -1154.8569 L -2722.6513 -1141.3296 L -2717.9426 -1141.3296 L -2717.9426 -1154.8569 L -2722.6513 -1154.8569 z M -2701.3901 -1151.4892 C -2700.8954 -1151.4892 -2700.5911 -1151.2992 -2700.477 -1150.9187 C -2700.3438 -1150.5382 -2700.2775 -1149.7296 -2700.2775 -1148.493 L -2700.2775 -1147.6651 C -2700.2775 -1146.4285 -2700.3438 -1145.6105 -2700.477 -1145.211 C -2700.6101 -1144.8115 -2700.9244 -1144.6116 -2701.419 -1144.6116 C -2701.8947 -1144.6116 -2702.1989 -1144.8115 -2702.3321 -1145.211 C -2702.4653 -1145.6105 -2702.5316 -1146.4853 -2702.5316 -1147.8362 L -2702.5316 -1148.5214 C -2702.5316 -1149.7391 -2702.4653 -1150.5382 -2702.3321 -1150.9187 C -2702.1989 -1151.2992 -2701.8848 -1151.4892 -2701.3901 -1151.4892 z M -2730.7568 -1151.3181 L -2730.7563 -1151.3181 C -2730.3378 -1151.318 -2729.9288 -1151.2037 -2729.5295 -1150.9755 L -2729.5295 -1145.0679 C -2729.891 -1144.8967 -2730.2433 -1144.8115 -2730.5857 -1144.8115 C -2730.9091 -1144.8115 -2731.1467 -1144.8685 -2731.2989 -1144.9826 C -2731.4321 -1145.1158 -2731.537 -1145.3439 -2731.613 -1145.6673 C -2731.6698 -1146.0098 -2731.7079 -1146.3427 -2731.7273 -1146.6662 C -2731.7459 -1146.9896 -2731.7552 -1147.5987 -2731.7552 -1148.493 C -2731.7552 -1149.4062 -2731.6888 -1150.1004 -2731.5557 -1150.5761 C -2731.4225 -1151.0705 -2731.156 -1151.3179 -2730.7568 -1151.3181 z M -2743.2847 -1151.2608 C -2742.4285 -1151.2608 -2742.0005 -1150.814 -2742.0005 -1149.9198 L -2742.0005 -1149.235 L -2744.4836 -1149.235 C -2744.4836 -1149.9199 -2744.4074 -1150.4236 -2744.2552 -1150.7471 C -2744.103 -1151.0896 -2743.7794 -1151.2608 -2743.2847 -1151.2608 z " /></g></g></svg>
