<?xml version="1.0" encoding="UTF-8" standalone="no"?>
<!-- Created with Inkscape (http://www.inkscape.org/) -->

<svg
   width="581.2403"
   height="135.5603"
   viewBox="0 0 153.78649 35.866998"
   version="1.1"
   id="svg5"
   inkscape:version="1.3 (0e150ed6c4, 2023-07-21)"
   sodipodi:docname="GT.svg"
   xmlns:inkscape="http://www.inkscape.org/namespaces/inkscape"
   xmlns:sodipodi="http://sodipodi.sourceforge.net/DTD/sodipodi-0.dtd"
   xmlns="http://www.w3.org/2000/svg"
   xmlns:svg="http://www.w3.org/2000/svg">
  <sodipodi:namedview
     id="namedview7"
     pagecolor="#ffffff"
     bordercolor="#111111"
     borderopacity="1"
     inkscape:pageshadow="0"
     inkscape:pageopacity="0"
     inkscape:pagecheckerboard="1"
     inkscape:document-units="px"
     showgrid="false"
     units="px"
     inkscape:zoom="0.32"
     inkscape:cx="-11207.813"
     inkscape:cy="-3750"
     inkscape:window-width="1280"
     inkscape:window-height="730"
     inkscape:window-x="596"
     inkscape:window-y="1433"
     inkscape:window-maximized="1"
     inkscape:current-layer="g4"
     inkscape:snap-bbox="true"
     inkscape:showpageshadow="0"
     inkscape:deskcolor="#d1d1d1" />
  <defs
     id="defs2" />
  <g
     inkscape:label="Layer 1"
     inkscape:groupmode="layer"
     id="layer1"
     transform="translate(3152.8409,894.24357)">
    <g
       id="g36">
      <path
         id="path35"
         style="color:#000000;fill:#2b0000;stroke-width:1.16524;-inkscape-stroke:none"
         d="m -3846.1212,-1591.0619 c -12.1123,0 -23.9882,9.9205 -26.3785,22.0328 -2.3903,12.1125 5.5705,22.0304 17.6828,22.0304 12.1124,0 23.9871,-9.9179 26.3775,-22.0304 v 0 h -9.2491 v 0 c -1.4039,7.1138 -8.1892,12.7813 -15.3032,12.7813 -7.1137,0 -11.6628,-5.6675 -10.2589,-12.7813 1.4039,-7.1138 8.1903,-12.7837 15.3041,-12.7837 3.5567,0 6.4719,1.4174 8.3228,3.7236 l 7.7816,-6.499 c -3.2053,-3.9937 -8.2231,-6.4737 -14.2791,-6.4737 z" />
      <path
         id="path36"
         style="fill:#2b0000;stroke:none;stroke-width:10.3412;stroke-dasharray:none"
         d="m -3849.5559,-1573.6548 -1.8252,9.249 h 9.2491 3.3136 l -0.654,3.3138 -0.067,0.3378 -1.7586,8.9112 -0.7206,3.6514 -1.7586,8.9113 h 9.2491 l 1.8253,-9.2491 0.6539,-3.3136 1.8253,-9.249 0.6539,-3.3138 h 3.651 8.9118 l 1.8253,-9.249 h -8.9119 -3.6509 -8.9119 -3.6508 z" />
      <rect
         style="fill:#87dba6;fill-opacity:1;stroke-width:7.9873"
         id="rect3"
         width="508"
         height="285.75"
         x="-4048.8311"
         y="-1156.1005"
         inkscape:export-filename="gametime.png"
         inkscape:export-xdpi="96"
         inkscape:export-ydpi="96" />
      <path
         id="path2"
         style="color:#000000;fill:#0e0027;fill-opacity:1;stroke-width:0.939593;-inkscape-stroke:none"
         d="m -3862.7335,-1029.5966 c -9.7667,0 -19.3431,7.9999 -21.2705,17.7667 -1.9275,9.7668 4.4917,17.76404 14.2584,17.76404 3.7579,0 7.4859,-1.18751 10.7623,-3.20057 l -0.4419,2.23883 -1.4181,7.1854 h 7.4579 l 1.4722,-7.45786 0.5272,-2.67193 1.4717,-7.45791 0.5276,-2.6724 h 2.9435 7.1863 l 1.4717,-7.4579 h -7.1858 -2.944 -7.1863 -2.944 -7.4579 l -1.4718,7.4579 h 7.458 2.1535 c -2.2429,3.8645 -6.4935,6.5784 -10.9099,6.5784 -5.7362,0 -9.4047,-4.5699 -8.2726,-10.306 1.132,-5.7362 6.6046,-10.3086 12.3409,-10.3086 2.8678,0 5.2183,1.143 6.7107,3.0027 l 6.2746,-5.2404 c -2.5846,-3.2204 -6.6304,-5.2204 -11.5137,-5.2204 z" />
      <text
         xml:space="preserve"
         style="font-size:33.223px;fill:#0e0027;fill-opacity:1;stroke:none;stroke-width:83.0574;stroke-dasharray:none"
         x="-3828.7395"
         y="-999.23022"
         id="text37"><tspan
           sodipodi:role="line"
           id="tspan37"
           style="font-style:normal;font-variant:normal;font-weight:normal;font-stretch:normal;font-family:'Passion One';-inkscape-font-specification:'Passion One';fill:#0e0027;fill-opacity:1;stroke-width:83.0574"
           x="-3828.7395"
           y="-999.23022">gametime</tspan></text>
      <rect
         style="fill:#87dba6;fill-opacity:1;stroke-width:7.9873"
         id="rect4"
         width="508"
         height="285.75"
         x="-4027.209"
         y="-780.72284"
         inkscape:export-filename="pozadina.png"
         inkscape:export-xdpi="96"
         inkscape:export-ydpi="96" />
      <rect
         style="fill:#87dba6;fill-opacity:1;stroke-width:7.9873"
         id="rect16"
         width="508"
         height="285.75"
         x="-4048.8311"
         y="-415.26712"
         inkscape:export-filename="bojeeee.png"
         inkscape:export-xdpi="96"
         inkscape:export-ydpi="96" />
      <g
         id="g17"
         style="fill:#0e0027;fill-opacity:1"
         transform="matrix(0.36995409,0,0,0.36995409,-2158.0589,-29.567952)">
        <path
           id="path16"
           style="color:#000000;fill:#0e0027;fill-opacity:1;stroke-width:1.16524;-inkscape-stroke:none"
           d="m -3751.8634,-1352.9369 c -12.1123,0 -23.9882,9.9205 -26.3785,22.0328 -2.3903,12.1125 5.5705,22.0304 17.6828,22.0304 12.1124,0 23.9871,-9.9179 26.3775,-22.0304 v 0 h -9.2491 v 0 c -1.4039,7.1138 -8.1892,12.7813 -15.3032,12.7813 -7.1137,0 -11.6628,-5.6675 -10.2589,-12.7813 1.4039,-7.1138 8.1903,-12.7837 15.3041,-12.7837 3.5567,0 6.4719,1.4174 8.3228,3.7236 l 7.7816,-6.499 c -3.2053,-3.9937 -8.2231,-6.4737 -14.2791,-6.4737 z" />
        <path
           id="path17"
           style="fill:#0e0027;fill-opacity:1;stroke:none;stroke-width:10.3412;stroke-dasharray:none"
           d="m -3755.2981,-1335.5298 -1.8252,9.249 h 9.2491 3.3136 l -0.654,3.3138 -0.067,0.3378 -1.7586,8.9112 -0.7206,3.6514 -1.7586,8.9113 h 9.2491 l 1.8253,-9.2491 0.6539,-3.3136 1.8253,-9.249 0.6539,-3.3138 h 3.651 8.9118 l 1.8253,-9.249 h -8.9119 -3.6509 -8.9119 -3.6508 z" />
      </g>
      <rect
         style="fill:#87dba6;fill-opacity:1;stroke-width:5.54674"
         id="rect17"
         width="264.58334"
         height="264.58334"
         x="-5045.0781"
         y="-644.45074"
         inkscape:export-filename="..\gametime lgoo.png"
         inkscape:export-xdpi="96"
         inkscape:export-ydpi="96" />
      <path
         id="path3"
         style="color:#000000;fill:#0e0027;fill-opacity:1;stroke-width:2.36684;-inkscape-stroke:none"
         d="m -4916.9878,-564.74875 c -24.6026,0 -48.7256,20.15154 -53.5807,44.75427 -4.8551,24.60272 11.3145,44.74767 35.9172,44.74767 9.4662,0 18.857,-2.99134 27.1103,-8.06224 l -1.1134,5.63965 -3.572,18.10001 h 18.7865 l 3.7085,-18.78637 1.328,-6.7306 3.7069,-18.78647 1.329,-6.73182 h 7.4148 18.1023 l 3.7074,-18.78636 h -18.101 -7.4159 -18.1026 -7.4157 -18.7865 l -3.7074,18.78636 h 18.7866 5.4248 c -5.65,9.73474 -16.3572,16.57107 -27.4822,16.57107 -14.4497,0 -23.6905,-11.51154 -20.8386,-25.9609 2.8514,-14.44955 16.6369,-25.96747 31.0865,-25.96747 7.2239,0 13.1448,2.87942 16.9045,7.56378 l 15.8057,-13.20038 c -6.5105,-8.11222 -16.702,-13.1502 -29.003,-13.1502 z" />
      <text
         xml:space="preserve"
         style="font-size:33.223px;fill:#0e0027;fill-opacity:1;stroke:none;stroke-width:83.0574;stroke-dasharray:none"
         x="-4384.3643"
         y="-888.43597"
         id="text3"><tspan
           sodipodi:role="line"
           id="tspan3"
           style="font-style:normal;font-variant:normal;font-weight:normal;font-stretch:normal;font-family:'Passion One';-inkscape-font-specification:'Passion One';fill:#0e0027;fill-opacity:1;stroke-width:83.0574"
           x="-4384.3643"
           y="-888.43597">gametime</tspan></text>
      <text
         xml:space="preserve"
         style="font-size:7.95639px;fill:#0e0027;fill-opacity:1;stroke:none;stroke-width:19.891;stroke-dasharray:none"
         x="-3821.7268"
         y="-981.79333"
         id="text1"><tspan
           sodipodi:role="line"
           id="tspan1"
           style="font-style:normal;font-variant:normal;font-weight:normal;font-stretch:normal;font-family:Roboto;-inkscape-font-specification:Roboto;fill:#0e0027;fill-opacity:1;stroke-width:19.891"
           x="-3821.7268"
           y="-981.79333">follow local sport, follow local passion.</tspan></text>
      <rect
         style="fill:#87dba6;fill-opacity:1;stroke-width:3.72086"
         id="rect18"
         width="396.875"
         height="79.375"
         x="-3163.1384"
         y="-1173.9663"
         inkscape:export-filename="gametime banner.png"
         inkscape:export-xdpi="96"
         inkscape:export-ydpi="96" />
      <g
         id="g22"
         transform="translate(0,1.0022914)">
        <path
           id="path18"
           style="color:#000000;fill:#0e0027;fill-opacity:1;stroke-width:0.807111;-inkscape-stroke:none"
           d="m -3104.5102,-1153.2146 c -8.3896,0 -16.6157,6.8719 -18.2714,15.2616 -1.6557,8.3896 3.8585,15.2593 12.248,15.2593 3.2281,0 6.4304,-1.0201 9.2448,-2.7493 l -0.3795,1.9231 -1.2182,6.1723 h 6.4063 l 1.2646,-6.4063 0.4529,-2.2952 1.2642,-6.4063 0.4532,-2.2956 h 2.5285 6.173 l 1.2642,-6.4063 h -6.1726 -2.5289 -6.173 -2.5289 -6.4064 l -1.2642,6.4063 h 6.4064 1.8498 c -1.9266,3.3196 -5.5779,5.6508 -9.3716,5.6508 -4.9273,0 -8.0786,-3.9255 -7.1061,-8.8528 0.9724,-4.9274 5.6733,-8.8551 10.6008,-8.8551 2.4635,0 4.4826,0.9819 5.7645,2.5793 l 5.3898,-4.5015 c -2.2201,-2.7663 -5.6955,-4.4843 -9.8902,-4.4843 z" />
        <text
           xml:space="preserve"
           style="font-size:28.5385px;fill:#0e0027;fill-opacity:1;stroke:none;stroke-width:71.346;stroke-dasharray:none"
           x="-3075.3093"
           y="-1127.1299"
           id="text18"><tspan
             sodipodi:role="line"
             id="tspan18"
             style="font-style:normal;font-variant:normal;font-weight:normal;font-stretch:normal;font-family:'Passion One';-inkscape-font-specification:'Passion One';fill:#0e0027;fill-opacity:1;stroke-width:71.346"
             x="-3075.3093"
             y="-1127.1299">gametime</tspan></text>
      </g>
      <text
         xml:space="preserve"
         style="font-size:8.76296px;line-height:0;letter-spacing:0.125785px;fill:#0e0027;fill-opacity:1;stroke:none;stroke-width:21.9075;stroke-dasharray:none"
         x="-2938.1035"
         y="-1132.2991"
         id="text19"><tspan
           sodipodi:role="line"
           style="font-style:normal;font-variant:normal;font-weight:500;font-stretch:normal;font-size:5.69596px;line-height:0;font-family:Roboto;-inkscape-font-specification:'Roboto Medium';letter-spacing:0.125785px;baseline-shift:sub;fill:#0e0027;fill-opacity:1;stroke-width:21.9075"
           x="-2938.1035"
           y="-1132.2991"
           id="tspan20">FOLLOW LOCAL SPORT, FOLLOW LOCAL PASSION.</tspan></text>
      <g
         id="g4"
         transform="translate(-29.765625,258.97104)">
        <g
           id="g20"
           style="fill:#87dba6;fill-opacity:1">
          <path
             id="path4"
             style="color:#000000;fill:#87dba6;fill-opacity:1;stroke-width:0.807111;-inkscape-stroke:none"
             d="m -3104.5102,-1153.2146 c -8.3896,0 -16.6157,6.8719 -18.2714,15.2616 -1.6557,8.3896 3.8585,15.2593 12.248,15.2593 3.2281,0 6.4304,-1.0201 9.2448,-2.7493 l -0.3795,1.9231 -1.2182,6.1723 h 6.4063 l 1.2646,-6.4063 0.4529,-2.2952 1.2642,-6.4063 0.4532,-2.2956 h 2.5285 6.173 l 1.2642,-6.4063 h -6.1726 -2.5289 -6.173 -2.5289 -6.4064 l -1.2642,6.4063 h 6.4064 1.8498 c -1.9266,3.3196 -5.5779,5.6508 -9.3716,5.6508 -4.9273,0 -8.0786,-3.9255 -7.1061,-8.8528 0.9724,-4.9274 5.6733,-8.8551 10.6008,-8.8551 2.4635,0 4.4826,0.9819 5.7645,2.5793 l 5.3898,-4.5015 c -2.2201,-2.7663 -5.6955,-4.4843 -9.8902,-4.4843 z" />
          <path
             style="font-size:28.5385px;font-family:'Passion One';-inkscape-font-specification:'Passion One';fill:#87dba6;fill-opacity:1;stroke-width:71.346"
             d="m -3070.3151,-1125.8742 h 2.9395 q 0.5137,0 0.5137,-0.4566 v -0.1142 q 0,-0.428 -0.5137,-0.428 h -2.9395 q -0.4566,0 -0.4566,0.4566 v 0.1141 q 0,0.4281 0.4566,0.4281 z m 1.1416,-15.2681 h 6.735 v 3.1963 h -2.0547 v 0.1427 q 0.9132,0.7991 0.9132,2.0833 0,4.5662 -5.1655,4.5662 h -1.3698 q -0.5137,0 -0.5137,0.4851 0,0.4567 0.4851,0.4567 h 3.8813 q 3.2819,0 3.2819,2.8538 0,2.3402 -1.5696,3.3676 -1.5696,1.0559 -4.3379,1.0559 -2.7682,0 -4.1951,-0.5993 -1.3984,-0.5708 -1.3984,-2.169 0,-0.8847 1.113,-1.484 v -0.1141 q -1.3984,-0.7706 -1.3984,-2.226 0,-1.7123 2.1975,-2.597 -1.0274,-0.742 -1.5411,-1.7123 -0.4852,-0.9989 -0.4852,-2.6256 0,-2.2545 1.4555,-3.4531 1.484,-1.2272 3.9669,-1.2272 z m 1.2556,5.4794 q 0,-0.9132 -0.2283,-1.3128 -0.1997,-0.428 -0.7705,-0.428 -0.5708,0 -0.7991,0.428 -0.1997,0.3996 -0.1997,1.2557 0,1.7409 1.0273,1.7409 0.9703,0 0.9703,-1.6838 z m 16.6095,-1.5696 -0.1427,5.9075 q 0,0.5422 0.2568,0.742 0.2854,0.1712 0.9418,0.1712 l -0.4281,3.4531 q -1.6552,0.1142 -1.8264,0.1142 -2.1119,0 -2.6827,-1.4555 h -0.1427 q -1.0559,1.4555 -3.2533,1.4555 -1.6838,0 -2.597,-1.0845 -0.8847,-1.0844 -0.8847,-2.968 0,-2.3687 1.4554,-3.2819 1.484,-0.9132 4.6518,-1.1986 v -0.6849 q 0,-0.7991 -0.7991,-0.7991 -1.3698,0 -4.2808,0.8276 l -0.7134,-4.1666 q 3.6529,-0.9418 6.0787,-0.9418 2.4258,0 3.3961,0.9418 0.9703,0.9418 0.9703,2.968 z m -5.508,7.049 q 1.056,0 1.056,-1.113 v -1.3984 q -1.056,0.1427 -1.5126,0.4566 -0.428,0.2854 -0.428,0.9989 0,1.0559 0.8846,1.0559 z m 19.235,-9.6175 q 1.5696,-1.3413 3.4532,-1.3413 1.8835,0 2.6255,0.8847 0.7706,0.8562 0.7706,2.597 v 10.5307 h -4.8516 v -8.904 q 0,-0.7135 -0.6278,-0.7135 -0.7991,0 -1.3413,0.3996 v 9.2179 h -4.8516 v -8.904 q 0,-0.7135 -0.6278,-0.7135 -0.7991,0 -1.3413,0.3996 v 9.2179 h -4.7945 v -13.6699 h 4.3664 l 0.2854,0.9988 h 0.1141 q 1.5696,-1.3413 3.71,-1.3413 2.1689,0 2.8253,1.5982 z m 14.2692,2.7397 q -0.742,0 -0.9703,0.5137 -0.2283,0.4852 -0.2283,1.5126 h 2.4829 v -0.685 q 0,-1.3413 -1.2843,-1.3413 z m 0.1142,-4.081 q 2.9395,0 4.1952,1.4269 1.2842,1.3984 1.2842,4.024 0,0.3424 -0.1998,3.0821 h -6.5068 q 0,2.1404 1.9692,2.1404 0.9418,0 3.6815,-0.6564 l 0.3995,3.5388 q -2.3972,0.742 -4.7945,0.742 -2.9394,0 -4.509,-1.9121 -1.5697,-1.9406 -1.5697,-5.2511 0,-7.1346 6.0502,-7.1346 z m 14.4975,14.041 q -2.1118,0.2568 -3.6814,0.2568 -1.5411,0 -2.4258,-0.7991 -0.8561,-0.8276 -0.8561,-2.8253 v -6.6209 h -1.3699 v -3.5388 h 1.5982 l 0.2568,-2.6255 h 4.3093 v 2.6255 h 2.5399 l -0.1997,3.5388 h -2.3687 v 5.6791 q 0,0.5994 0.5708,0.5994 0.057,0 1.7693,-0.086 z m 6.1643,-0.029 h -4.7088 v -13.5272 h 4.7088 z m -4.3378,-14.6117 q -0.5993,-0.5137 -0.5993,-1.6552 0,-1.1416 0.5993,-1.6838 0.5993,-0.5422 1.9691,-0.5422 1.3699,0 1.9692,0.5422 0.5993,0.5422 0.5993,1.6838 0,1.113 -0.5993,1.6552 -0.5993,0.5137 -1.9692,0.5137 -1.3698,0 -1.9691,-0.5137 z m 17.7224,1.9406 q 1.5696,-1.3413 3.4532,-1.3413 1.8835,0 2.6255,0.8847 0.7706,0.8562 0.7706,2.597 v 10.5307 h -4.8516 v -8.904 q 0,-0.7135 -0.6278,-0.7135 -0.7991,0 -1.3414,0.3996 v 9.2179 h -4.8515 v -8.904 q 0,-0.7135 -0.6278,-0.7135 -0.7991,0 -1.3414,0.3996 v 9.2179 h -4.7944 v -13.6699 h 4.3664 l 0.2854,0.9988 h 0.1141 q 1.5696,-1.3413 3.71,-1.3413 2.1689,0 2.8253,1.5982 z m 14.2692,2.7397 q -0.742,0 -0.9703,0.5137 -0.2283,0.4852 -0.2283,1.5126 h 2.4829 v -0.685 q 0,-1.3413 -1.2843,-1.3413 z m 0.1142,-4.081 q 2.9395,0 4.1952,1.4269 1.2842,1.3984 1.2842,4.024 0,0.3424 -0.1998,3.0821 h -6.5068 q 0,2.1404 1.9692,2.1404 0.9418,0 3.6815,-0.6564 l 0.3995,3.5388 q -2.3972,0.742 -4.7945,0.742 -2.9394,0 -4.509,-1.9121 -1.5697,-1.9406 -1.5697,-5.2511 0,-7.1346 6.0502,-7.1346 z"
             id="text4"
             aria-label="gametime" />
        </g>
      </g>
    </g>
  </g>
</svg>
